# Blender 3.6.2
# www.blender.org
mtllib cbCushion2_Redux.mtl
o cbCushion_2
v -0.200000 -0.173988 0.048902
v -0.200000 -0.273988 0.048902
v -0.200000 -0.273988 -0.051098
v -0.200000 -0.173988 -0.051098
v -0.300000 -0.173988 -0.051098
v -0.300000 -0.173988 -0.151098
v -0.300000 0.226013 0.148902
v -0.300000 0.226013 0.048902
v -0.300000 0.226013 -0.051098
v -0.200000 0.226013 0.048902
v -0.200000 0.326012 -0.151098
v 0.300000 0.226013 0.148902
v 0.300000 0.226013 -0.151098
v 0.200000 0.226013 0.148902
v 0.200000 0.326012 0.048902
v 0.200000 0.326012 0.148902
v 0.200000 0.326012 -0.151098
v 0.200000 -0.273988 0.148902
v -0.300000 -0.273988 0.048902
v -0.300000 -0.173988 0.048902
v 0.300000 -0.273988 0.048902
v 0.300000 -0.173988 0.048902
v -0.300000 -0.173988 0.148902
v 0.200000 -0.173988 0.148902
v 0.300000 -0.173988 0.148902
v -0.200000 0.226013 0.148902
v -0.200000 0.326012 0.148902
v 0.200000 0.226013 0.048902
v 0.300000 0.226013 0.048902
v 0.300000 0.326012 0.048902
v 0.200000 -0.273988 -0.051098
v 0.200000 -0.173988 -0.051098
v 0.300000 -0.173988 -0.051098
v 0.300000 -0.273988 -0.051098
v -0.200000 -0.273988 -0.151098
v 0.200000 -0.173988 -0.151098
v 0.200000 -0.273988 -0.151098
v -0.200000 -0.173988 -0.151098
v 0.300000 -0.173988 -0.151098
v 0.200000 0.226013 -0.151098
v -0.200000 0.226013 -0.051098
v 0.300000 0.326012 -0.051098
v -0.200000 0.226013 -0.151098
v -0.200000 -0.273988 0.148902
v -0.300000 -0.273988 -0.051098
v 0.200000 -0.273988 0.048902
v -0.200000 -0.173988 0.148902
v 0.200000 -0.173988 0.048902
v -0.300000 0.226013 -0.151098
v 0.200000 0.226013 -0.051098
v 0.300000 0.226013 -0.051098
v -0.300000 0.326012 0.048902
v -0.300000 0.326012 -0.051098
v -0.200000 0.326012 0.048902
v -0.200000 0.326012 -0.051098
v 0.200000 0.326012 -0.051098
vn 1.0000 -0.0000 -0.0000
vn -0.0000 -0.0000 -1.0000
vn -0.0000 -0.0000 1.0000
vn -1.0000 -0.0000 -0.0000
vn -0.0000 -1.0000 -0.0000
vn -0.0000 1.0000 -0.0000
vt 0.812500 0.625000
vt 0.750000 0.687500
vt 0.750000 0.625000
vt 0.562500 0.812500
vt 0.625000 0.750000
vt 0.562500 0.750000
vt 0.812500 0.500000
vt 0.750000 0.562500
vt 0.750000 0.500000
vt 0.062500 0.750000
vt 0.000000 0.812500
vt 0.000000 0.750000
vt 0.125000 0.750000
vt 0.062500 0.812500
vt 0.750000 0.062500
vt 0.812500 0.000000
vt 0.750000 0.000000
vt 0.812500 0.562500
vt 0.437500 0.437500
vt 0.500000 0.687500
vt 0.500000 0.437500
vt 0.750000 0.187500
vt 0.812500 0.125000
vt 0.750000 0.125000
vt 0.687500 0.250000
vt 0.687500 0.312500
vt 0.437500 0.312500
vt 0.312500 0.062500
vt 0.062500 0.312500
vt 0.062500 0.062500
vt 0.437500 0.125000
vt 0.687500 0.062500
vt 0.437500 0.062500
vt 0.375000 0.750000
vt 0.312500 0.812500
vt 0.312500 0.750000
vt 0.625000 0.812500
vt 0.687500 0.750000
vt 0.812500 0.437500
vt 0.750000 0.437500
vt 0.750000 0.250000
vt 0.812500 0.187500
vt 0.500000 0.812500
vt 0.500000 0.750000
vt 0.375000 0.812500
vt 0.437500 0.750000
vt 0.750000 0.312500
vt 0.812500 0.250000
vt 0.812500 0.312500
vt 0.750000 0.375000
vt 0.812500 0.687500
vt 0.750000 0.750000
vt 0.437500 0.812500
vt 0.812500 0.062500
vt 0.250000 0.750000
vt 0.187500 0.812500
vt 0.187500 0.750000
vt 0.687500 0.687500
vt 0.625000 0.687500
vt 0.625000 0.437500
vt 0.812500 0.375000
vt 0.125000 0.812500
vt 0.312500 0.687500
vt 0.062500 0.437500
vt 0.062500 0.687500
vt 0.687500 0.812500
vt 0.250000 0.812500
vt 0.375000 0.437500
vt 0.375000 0.687500
vt 0.437500 0.687500
vt 0.500000 0.375000
vt 0.437500 0.375000
vt 0.562500 0.687500
vt 0.562500 0.437500
vt 0.375000 0.312500
vt 0.375000 0.250000
vt 0.437500 0.250000
vt 0.437500 0.187500
vt 0.687500 0.187500
vt 0.687500 0.375000
vt 0.375000 0.062500
vt 0.312500 0.312500
vt 0.312500 0.375000
vt 0.062500 0.375000
vt 0.062500 0.000000
vt 0.312500 0.000000
vt 0.000000 0.312500
vt 0.000000 0.062500
vt 0.687500 0.125000
vt 0.375000 0.125000
vt 0.687500 -0.000000
vt 0.437500 -0.000000
vt 0.812500 0.750000
vt 0.625000 0.375000
vt 0.687500 0.437500
vt 0.312500 0.437500
vt 0.000000 0.437500
vt 0.000000 0.687500
vt 0.750000 0.812500
s 0
usemtl cbCushion_2_Material
f 28/1/1 16/2/1 14/3/1
f 53/4/2 41/5/2 9/6/2
f 29/7/3 15/8/3 28/9/3
f 2/10/3 20/11/3 19/12/3
f 21/13/3 48/14/3 46/10/3
f 5/15/2 3/16/2 45/17/2
f 56/3/2 51/18/2 50/8/2
f 20/19/4 9/20/4 5/21/4
f 20/22/5 47/23/5 23/24/5
f 15/25/6 56/26/6 55/27/6
f 24/28/3 26/29/3 47/30/3
f 3/31/5 46/32/5 2/33/5
f 12/34/6 28/35/6 14/36/6
f 27/37/4 10/38/4 26/5/4
f 51/39/6 40/9/6 50/40/6
f 48/41/5 25/42/5 24/22/5
f 10/6/3 52/43/3 8/44/3
f 6/45/5 4/46/5 5/34/5
f 4/47/4 35/48/4 3/41/4
f 37/49/1 32/50/1 31/47/1
f 40/51/1 56/52/1 50/2/1
f 41/44/6 49/53/6 9/46/6
f 32/24/2 34/54/2 31/15/2
f 46/55/1 24/56/1 18/57/1
f 51/58/1 29/59/1 22/60/1
f 36/40/5 33/61/5 32/50/5
f 47/62/4 2/57/4 44/13/4
f 40/63/2 38/64/2 43/65/2
f 55/66/4 43/52/4 41/38/4
f 26/36/6 8/67/6 7/55/6
f 28/1/1 15/51/1 16/2/1
f 53/4/2 55/37/2 41/5/2
f 29/7/3 30/18/3 15/8/3
f 2/10/3 1/14/3 20/11/3
f 21/13/3 22/62/3 48/14/3
f 5/15/2 4/54/2 3/16/2
f 56/3/2 42/1/2 51/18/2
f 20/19/4 23/68/4 7/69/4
f 8/70/4 52/46/4 53/44/4
f 20/19/4 7/69/4 8/70/4
f 45/71/4 19/72/4 20/19/4
f 49/73/4 6/74/4 5/21/4
f 5/21/4 45/71/4 20/19/4
f 20/19/4 8/70/4 9/20/4
f 8/70/4 53/44/4 9/20/4
f 9/20/4 49/73/4 5/21/4
f 20/22/5 1/42/5 47/23/5
f 53/75/6 52/76/6 54/77/6
f 54/77/6 27/78/6 16/79/6
f 15/25/6 30/41/6 42/47/6
f 54/77/6 16/79/6 15/25/6
f 55/27/6 53/75/6 54/77/6
f 17/80/6 11/72/6 55/27/6
f 15/25/6 42/47/6 56/26/6
f 56/26/6 17/80/6 55/27/6
f 55/27/6 54/77/6 15/25/6
f 24/28/3 25/81/3 12/75/3
f 14/82/3 16/83/3 27/84/3
f 24/28/3 12/75/3 14/82/3
f 44/85/3 18/86/3 24/28/3
f 7/87/3 23/88/3 47/30/3
f 47/30/3 44/85/3 24/28/3
f 24/28/3 14/82/3 26/29/3
f 14/82/3 27/84/3 26/29/3
f 26/29/3 7/87/3 47/30/3
f 3/31/5 35/78/5 37/79/5
f 31/89/5 34/24/5 21/15/5
f 3/31/5 37/79/5 31/89/5
f 19/81/5 45/90/5 3/31/5
f 18/91/5 44/92/5 2/33/5
f 2/33/5 19/81/5 3/31/5
f 3/31/5 31/89/5 46/32/5
f 31/89/5 21/15/5 46/32/5
f 46/32/5 18/91/5 2/33/5
f 12/34/6 29/45/6 28/35/6
f 27/37/4 54/66/4 10/38/4
f 51/39/6 13/7/6 40/9/6
f 48/41/5 22/48/5 25/42/5
f 10/6/3 54/4/3 52/43/3
f 6/45/5 38/53/5 4/46/5
f 4/47/4 38/49/4 35/48/4
f 37/49/1 36/61/1 32/50/1
f 40/51/1 17/93/1 56/52/1
f 41/44/6 43/43/6 49/53/6
f 32/24/2 33/23/2 34/54/2
f 46/55/1 48/67/1 24/56/1
f 21/94/1 34/80/1 33/95/1
f 33/95/1 39/40/1 13/2/1
f 51/58/1 42/38/1 30/5/1
f 33/95/1 13/2/1 51/58/1
f 22/60/1 21/94/1 33/95/1
f 12/73/1 25/74/1 22/60/1
f 51/58/1 30/5/1 29/59/1
f 29/59/1 12/73/1 22/60/1
f 22/60/1 33/95/1 51/58/1
f 36/40/5 39/39/5 33/61/5
f 47/62/4 1/56/4 2/57/4
f 40/63/2 13/69/2 39/68/2
f 36/96/2 37/83/2 35/84/2
f 40/63/2 39/68/2 36/96/2
f 11/10/2 17/36/2 40/63/2
f 6/97/2 49/98/2 43/65/2
f 43/65/2 11/10/2 40/63/2
f 40/63/2 36/96/2 38/64/2
f 36/96/2 35/84/2 38/64/2
f 38/64/2 6/97/2 43/65/2
f 55/66/4 11/99/4 43/52/4
f 26/36/6 10/35/6 8/67/6
