# Blender 3.6.2
# www.blender.org
mtllib cbCushion1_Redux.mtl
o cbCushion_1
v -0.294665 -0.290275 -0.057210
v -0.194665 -0.190275 -0.057210
v -0.194665 0.209725 0.142790
v -0.194665 0.209725 0.042790
v -0.294665 0.309725 0.042790
v 0.305335 -0.290275 0.042790
v 0.205335 -0.190275 0.042790
v 0.205335 0.209725 -0.157210
v 0.205335 0.209725 -0.057210
v -0.294665 -0.290275 0.042790
v -0.194665 -0.190275 0.142790
v 0.205335 0.209725 0.142790
v 0.305335 0.109725 0.042790
v 0.305335 0.309725 0.042790
v 0.205335 -0.190275 -0.057210
v -0.194665 0.209725 -0.157210
v 0.305335 0.309725 -0.057210
v 0.305335 -0.290275 -0.057210
v -0.194665 -0.190275 0.042790
v 0.205335 -0.190275 0.142790
v -0.194665 -0.190275 -0.157210
v 0.205335 -0.190275 -0.157210
v 0.205335 0.209725 0.042790
v -0.194665 0.209725 -0.057210
v -0.294665 0.309725 -0.057210
vn -0.0000 -0.0000 1.0000
vn -1.0000 -0.0000 -0.0000
vn 1.0000 -0.0000 -0.0000
vn -0.0000 -0.0000 -1.0000
vn -0.0000 1.0000 -0.0000
vn -0.0000 -1.0000 -0.0000
vt 0.375000 0.375000
vt 0.312500 0.312500
vt 0.375000 0.250000
vt 0.000000 0.000000
vt 0.062500 0.062500
vt 0.000000 0.375000
vt 0.750000 0.250000
vt 0.812500 0.000000
vt 0.750000 0.000000
vt 0.687500 0.250000
vt 0.687500 0.000000
vt 0.750000 0.750000
vt 0.812500 0.500000
vt 0.750000 0.500000
vt 0.062500 0.437500
vt 0.312500 0.437500
vt 0.812500 0.250000
vt 0.750000 0.562500
vt 0.375000 0.625000
vt 0.375000 0.562500
vt 0.625000 0.000000
vt 0.687500 0.375000
vt 0.625000 0.687500
vt 0.375000 0.687500
vt 0.375000 0.000000
vt 0.625000 0.250000
vt 0.312500 0.687500
vt 0.000000 0.750000
vt 0.375000 0.750000
vt 0.375000 0.500000
vt 0.625000 0.750000
vt 0.375000 0.812500
vt 0.875000 0.000000
vt 0.875000 0.250000
vt 0.625000 0.500000
vt 0.250000 0.812500
vt 0.000000 0.812500
vt 0.062500 0.312500
vt 0.312500 0.062500
vt 0.750000 0.375000
vt 0.812500 0.750000
vt 0.750000 0.625000
vt 0.625000 0.375000
vt 0.625000 0.625000
vt 0.062500 0.687500
vt 0.625000 0.812500
vt 0.250000 0.750000
s 0
usemtl cbCushion_1_Material
f 14/1/1 23/2/1 13/3/1
f 10/4/1 19/5/1 5/6/1
f 3/7/2 19/8/2 11/9/2
f 13/10/3 6/11/3 18/9/3
f 24/12/2 21/13/2 2/14/2
f 1/6/4 2/15/4 15/16/4
f 7/17/3 12/14/3 20/7/3
f 14/18/5 25/19/5 5/20/5
f 10/21/2 25/22/2 1/11/2
f 7/23/6 11/19/6 19/24/6
f 11/25/1 12/26/1 3/3/1
f 9/27/4 25/28/4 17/29/4
f 18/18/6 10/30/6 1/20/6
f 4/29/5 12/23/5 23/31/5
f 9/31/5 16/32/5 24/29/5
f 9/17/3 22/33/3 8/34/3
f 8/35/4 21/3/4 16/30/4
f 22/36/6 2/28/6 21/37/6
f 14/1/1 4/38/1 23/2/1
f 6/25/1 13/3/1 7/39/1
f 13/3/1 23/2/1 7/39/1
f 4/38/1 14/1/1 5/6/1
f 6/25/1 7/39/1 19/5/1
f 19/5/1 4/38/1 5/6/1
f 10/4/1 6/25/1 19/5/1
f 3/7/2 4/17/2 19/8/2
f 18/9/3 17/40/3 13/10/3
f 17/40/3 14/22/3 13/10/3
f 24/12/2 16/41/2 21/13/2
f 15/16/4 18/1/4 1/6/4
f 1/6/4 25/28/4 2/15/4
f 7/17/3 23/13/3 12/14/3
f 14/18/5 17/42/5 25/19/5
f 10/21/2 5/43/2 25/22/2
f 7/23/6 20/44/6 11/19/6
f 11/25/1 20/21/1 12/26/1
f 24/45/4 2/15/4 25/28/4
f 17/29/4 18/1/4 15/16/4
f 9/27/4 24/45/4 25/28/4
f 17/29/4 15/16/4 9/27/4
f 18/18/6 6/14/6 10/30/6
f 4/29/5 3/24/5 12/23/5
f 9/31/5 8/46/5 16/32/5
f 9/17/3 15/8/3 22/33/3
f 8/35/4 22/26/4 21/3/4
f 22/36/6 15/47/6 2/28/6
